<svg width="20" height="16" viewBox="0 0 20 16" fill="none" xmlns="http://www.w3.org/2000/svg">
<path d="M2 15.3112C1.45 15.3112 0.979002 15.1257 0.587002 14.7546C0.195002 14.3836 -0.000664969 13.938 1.69779e-06 13.418V2.05874C1.69779e-06 1.53811 0.196002 1.09226 0.588002 0.721187C0.980002 0.350117 1.45067 0.164898 2 0.165529H18C18.55 0.165529 19.021 0.351064 19.413 0.722133C19.805 1.0932 20.0007 1.53874 20 2.05874V13.418C20 13.9387 19.804 14.3845 19.412 14.7556C19.02 15.1266 18.5493 15.3119 18 15.3112H2ZM10 8.68499L2 3.95196V13.418H18V3.95196L10 8.68499ZM10 6.79177L18 2.05874H2L10 6.79177ZM2 3.95196V2.05874V13.418V3.95196Z" fill="#F8F8F8"/>
</svg>