<?xml version="1.0" standalone="no"?>
<!DOCTYPE svg PUBLIC "-//W3C//DTD SVG 20010904//EN"
 "http://www.w3.org/TR/2001/REC-SVG-20010904/DTD/svg10.dtd">
<svg version="1.0" xmlns="http://www.w3.org/2000/svg"
 width="200.000000pt" height="200.000000pt" viewBox="0 0 200.000000 200.000000"
 preserveAspectRatio="xMidYMid meet">
<metadata>
Created by potrace 1.10, written by Peter Selinger 2001-2011
</metadata>
<g transform="translate(0.000000,200.000000) scale(0.050000,-0.050000)"
fill="#ffffff" stroke="none">
<path d="M0 2000 l0 -2000 2000 0 2000 0 0 2000 0 2000 -2000 0 -2000 0 0
-2000z m2470 1254 c643 -427 605 -394 468 -394 -107 0 -119 6 -575 300 -256
165 -468 300 -472 300 -4 0 -216 -135 -472 -300 -457 -294 -468 -300 -576
-300 -61 0 -102 7 -92 16 10 10 190 129 399 265 208 137 460 304 560 370 99
67 189 117 200 112 11 -6 263 -172 560 -369z m-339 -483 c456 -136 417 -886
-46 -891 -66 0 -63 -7 155 -289 235 -304 222 -271 103 -271 l-97 0 -251 335
-251 335 163 10 c342 22 511 281 338 518 -129 178 -762 209 -996 50 -72 -49
-78 -50 -102 -17 -127 174 596 336 984 220z m909 -730 l0 -659 -335 -169
c-184 -93 -420 -215 -523 -271 -223 -121 -202 -117 -202 -37 0 61 10 70 150
142 83 43 283 148 444 235 161 87 301 158 310 158 9 0 16 284 16 630 l0 630
70 0 70 0 0 -659z m-2163 32 l-7 -607 465 -255 465 -254 0 -69 c0 -82 5 -81
-114 -12 -53 31 -293 159 -533 285 l-438 229 13 238 c6 131 12 421 12 645 l0
407 72 0 72 0 -7 -607z m933 490 c90 -41 140 -91 121 -122 -20 -31 -42 -26
-119 26 -129 88 -345 83 -476 -10 -59 -42 -125 -37 -112 8 34 111 417 175 586
98z m-20 -120 c58 -34 95 -123 51 -123 -13 0 -50 20 -83 45 -47 35 -88 45
-178 45 -90 0 -131 -10 -178 -45 -71 -53 -94 -56 -109 -15 -43 112 340 184
497 93z m-55 -103 c64 -39 84 -86 45 -110 -10 -6 -46 8 -78 32 -68 50 -199 45
-259 -9 -41 -38 -95 -12 -76 36 33 86 259 118 368 51z m-82 -174 c16 -63 -13
-91 -86 -83 -43 5 -59 19 -64 56 -14 99 125 125 150 27z m-9 -506 l6 -340 -65
0 -65 0 0 340 0 340 59 0 59 0 6 -340z m-684 -1009 c0 -86 -46 -231 -73 -231
-19 0 -26 13 -19 35 5 19 16 71 24 115 18 107 68 166 68 81z m151 -56 l57 -85
17 85 c16 78 33 100 58 75 21 -21 -37 -240 -65 -245 -15 -3 -52 33 -82 79
l-54 85 -14 -84 c-8 -52 -24 -85 -41 -85 -33 0 -32 -1 -5 116 41 179 48 182
129 59z m282 4 c57 -87 86 -78 87 26 0 37 10 55 32 55 24 0 29 -12 21 -45 -6
-25 -17 -83 -25 -130 -7 -47 -24 -85 -38 -85 -14 0 -50 38 -81 85 l-57 85 -17
-85 c-24 -120 -63 -111 -46 10 27 194 44 205 124 84z m389 60 c102 -54 -4
-244 -131 -235 -80 6 -81 7 -87 90 -10 135 100 208 218 145z m295 3 c39 -24
20 -108 -31 -133 l-44 -22 43 -43 c43 -43 43 -44 3 -44 -23 0 -62 22 -87 49
-51 54 -81 50 -81 -10 0 -23 -14 -39 -32 -39 -20 0 -28 11 -21 29 6 15 16 63
23 105 7 42 17 87 21 101 9 28 164 34 206 7z m323 -12 c0 -23 -27 -30 -120
-30 -93 0 -120 7 -120 30 0 23 27 30 120 30 93 0 120 -7 120 -30z m113 -55
l18 -85 50 85 c41 72 99 114 99 73 0 -31 -148 -248 -169 -248 -22 0 -71 161
-71 232 0 65 56 22 73 -57z m302 -10 c12 -52 28 -111 36 -130 10 -27 3 -35
-29 -35 -30 0 -42 13 -43 45 -4 114 -30 127 -79 39 -38 -68 -100 -114 -100
-75 0 29 149 251 169 251 13 0 34 -43 46 -95z m-435 -35 c0 -23 -27 -30 -120
-30 -111 0 -140 13 -107 47 29 29 227 14 227 -17z m-20 -100 c0 -23 -27 -30
-120 -30 -93 0 -120 7 -120 30 0 23 27 30 120 30 93 0 120 -7 120 -30z"/>
<path d="M1620 569 c-30 -79 -25 -89 48 -89 66 0 91 31 92 115 0 51 -120 29
-140 -26z"/>
<path d="M1900 589 c0 -23 17 -30 63 -25 92 9 99 56 9 56 -52 0 -72 -9 -72
-31z"/>
</g>
</svg>
