<?xml version="1.0" standalone="no"?>
<!DOCTYPE svg PUBLIC "-//W3C//DTD SVG 20010904//EN"
 "http://www.w3.org/TR/2001/REC-SVG-20010904/DTD/svg10.dtd">
<svg version="1.0" xmlns="http://www.w3.org/2000/svg"
 width="200.000000pt" height="200.000000pt" viewBox="0 0 200.000000 200.000000"
 preserveAspectRatio="xMidYMid meet">
<metadata>
Created by potrace 1.10, written by Peter Selinger 2001-2011
</metadata>
<g transform="translate(0.000000,200.000000) scale(0.050000,-0.050000)"
fill="#ffffff" stroke="none">
<path d="M1710 3511 c-100 -66 -352 -233 -560 -370 -209 -136 -389 -255 -399
-265 -10 -9 31 -16 92 -16 108 0 119 6 576 300 256 165 468 300 472 300 4 0
216 -135 472 -300 456 -294 468 -300 575 -300 66 0 102 7 91 18 -19 18 -1083
726 -1119 745 -11 5 -101 -45 -200 -112z"/>
<path d="M1373 2769 c-182 -67 -273 -154 -226 -218 24 -33 30 -32 102 17 234
159 867 128 996 -50 173 -237 4 -496 -338 -518 l-163 -10 251 -335 251 -335
97 0 c119 0 132 -33 -103 271 -218 282 -221 289 -155 289 357 4 509 560 218
801 -141 116 -706 170 -930 88z"/>
<path d="M2900 2070 c0 -346 -7 -630 -16 -630 -9 0 -149 -71 -310 -158 -161
-87 -361 -192 -444 -235 -140 -72 -150 -81 -150 -142 0 -80 -21 -84 202 37
103 56 339 178 523 271 l335 169 0 659 0 659 -70 0 -70 0 0 -630z"/>
<path d="M740 2273 c0 -224 -6 -514 -12 -645 l-13 -238 438 -229 c240 -126
480 -254 533 -285 119 -69 114 -70 114 12 l0 69 -465 254 -465 255 7 607 7
607 -72 0 -72 0 0 -407z"/>
<path d="M1339 2545 c-59 -30 -111 -66 -115 -80 -13 -45 53 -50 112 -8 131 93
347 98 476 10 98 -66 167 -48 105 27 -97 117 -397 143 -578 51z"/>
<path d="M1455 2473 c-114 -43 -175 -89 -162 -123 15 -41 38 -38 109 15 47 35
88 45 178 45 90 0 131 -10 178 -45 76 -57 107 -57 98 -1 -14 97 -256 162 -401
109z"/>
<path d="M1445 2350 c-36 -16 -71 -43 -78 -61 -19 -48 35 -74 76 -36 60 54
191 59 259 9 61 -45 98 -42 98 9 0 87 -224 136 -355 79z"/>
<path d="M1529 2212 c-54 -40 -30 -121 38 -129 73 -8 102 20 86 83 -15 57 -77
80 -124 46z"/>
<path d="M1520 1660 l0 -340 65 0 65 0 -6 340 -6 340 -59 0 -59 0 0 -340z"/>
<path d="M914 665 c-5 -8 -15 -51 -22 -95 -8 -44 -19 -96 -24 -115 -7 -22 0
-35 19 -35 27 0 73 145 73 231 0 30 -31 40 -46 14z"/>
<path d="M1011 655 c-11 -38 -51 -211 -51 -224 0 -56 58 6 68 74 l14 84 54
-85 c30 -46 67 -82 82 -79 28 5 86 224 65 245 -25 25 -42 3 -58 -75 l-17 -85
-57 85 c-58 87 -86 104 -100 60z"/>
<path d="M1292 645 c-5 -19 -16 -78 -23 -130 -17 -121 22 -130 46 -10 l17 85
57 -85 c31 -47 67 -85 81 -85 14 0 31 38 38 85 8 47 19 105 25 130 8 33 3 45
-21 45 -22 0 -32 -18 -32 -55 -1 -104 -30 -113 -87 -26 -58 88 -85 100 -101
46z"/>
<path d="M1599 639 c-79 -79 -48 -208 52 -215 96 -7 137 30 157 140 21 114
-120 164 -209 75z m161 -44 c-1 -84 -26 -115 -92 -115 -73 0 -78 10 -48 89 20
55 140 77 140 26z"/>
<path d="M1871 655 c-4 -14 -14 -59 -21 -101 -7 -42 -17 -90 -23 -105 -7 -18
1 -29 21 -29 18 0 32 16 32 39 0 60 30 64 81 10 25 -27 64 -49 87 -49 40 0 40
1 -3 44 l-43 43 44 22 c51 25 70 109 31 133 -42 27 -197 21 -206 -7z m164 -60
c-13 -39 -135 -45 -135 -6 0 22 20 31 72 31 48 0 69 -8 63 -25z"/>
<path d="M2160 650 c0 -23 27 -30 120 -30 93 0 120 7 120 30 0 23 -27 30 -120
30 -93 0 -120 -7 -120 -30z"/>
<path d="M2440 652 c0 -71 49 -232 71 -232 21 0 169 217 169 248 0 41 -58 -1
-99 -73 l-50 -85 -18 85 c-17 79 -73 122 -73 57z"/>
<path d="M2672 559 c-81 -138 -82 -139 -46 -139 15 0 48 38 74 84 49 88 75 75
79 -39 1 -32 13 -45 43 -45 32 0 39 8 29 35 -8 19 -24 78 -36 130 -29 125 -56
120 -143 -26z"/>
<path d="M2153 567 c-33 -34 -4 -47 107 -47 93 0 120 7 120 30 0 31 -198 46
-227 17z"/>
<path d="M2120 450 c0 -23 27 -30 120 -30 93 0 120 7 120 30 0 23 -27 30 -120
30 -93 0 -120 -7 -120 -30z"/>
</g>
</svg>
