<svg width="65" height="65" viewBox="0 0 65 65" fill="none" xmlns="http://www.w3.org/2000/svg">
<path d="M41.2347 46.3397C41.7244 45.9167 41.9995 45.3431 41.9995 44.7451C41.9995 44.147 41.7244 43.5735 41.2347 43.1505L28.3046 31.9864L41.2347 20.8222C41.7105 20.3969 41.9738 19.8271 41.9679 19.2358C41.9619 18.6444 41.6872 18.0788 41.2029 17.6606C40.7186 17.2424 40.0634 17.0052 39.3785 17.0001C38.6936 16.9949 38.0338 17.2223 37.5412 17.6331L22.7643 30.3918C22.2746 30.8148 21.9995 31.3883 21.9995 31.9864C21.9995 32.5844 22.2746 33.158 22.7643 33.5809L37.5412 46.3397C38.031 46.7625 38.6953 47 39.3879 47C40.0806 47 40.7449 46.7625 41.2347 46.3397Z" fill="white"/>
</svg>
