<svg width="18" height="18" viewBox="0 0 18 18" fill="none" xmlns="http://www.w3.org/2000/svg">
<path d="M16.95 18.0008C14.8667 18.0008 12.8083 17.5708 10.775 16.7106C8.74167 15.8505 6.89167 14.6319 5.225 13.0548C3.55833 11.4771 2.271 9.72591 1.363 7.80115C0.455 5.87638 0.000666667 3.92795 0 1.95585C0 1.67187 0.0999999 1.43522 0.3 1.2459C0.5 1.05657 0.75 0.961914 1.05 0.961914H5.1C5.33333 0.961914 5.54167 1.03701 5.725 1.18721C5.90833 1.3374 6.01667 1.51473 6.05 1.7192L6.7 5.03232C6.73333 5.28475 6.725 5.49774 6.675 5.67128C6.625 5.84483 6.53333 5.99471 6.4 6.12092L3.975 8.4401C4.30833 9.02385 4.704 9.58771 5.162 10.1317C5.62 10.6757 6.12433 11.2004 6.675 11.7059C7.19167 12.195 7.73333 12.6487 8.3 13.0671C8.86667 13.4855 9.46667 13.8679 10.1 14.2144L12.45 11.9899C12.6 11.8479 12.796 11.7412 13.038 11.6699C13.28 11.5986 13.5173 11.5791 13.75 11.6112L17.2 12.2739C17.4333 12.337 17.625 12.4515 17.775 12.6175C17.925 12.7835 18 12.9687 18 13.1731V17.0069C18 17.2909 17.9 17.5275 17.7 17.7169C17.5 17.9062 17.25 18.0008 16.95 18.0008Z" fill="#F8F8F8"/>
</svg>