<svg width="65" height="65" viewBox="0 0 65 65" fill="none" xmlns="http://www.w3.org/2000/svg">
<path d="M25.7643 18.6603C25.2746 19.0833 24.9995 19.6569 24.9995 20.2549C24.9995 20.853 25.2746 21.4265 25.7643 21.8495L38.6944 33.0136L25.7643 44.1778C25.2885 44.6031 25.0252 45.1729 25.0312 45.7642C25.0371 46.3556 25.3118 46.9212 25.7961 47.3394C26.2804 47.7576 26.9356 47.9948 27.6205 47.9999C28.3054 48.0051 28.9652 47.7777 29.4579 47.3669L44.2347 34.6082C44.7244 34.1852 44.9995 33.6117 44.9995 33.0136C44.9995 32.4156 44.7244 31.842 44.2347 31.4191L29.4579 18.6603C28.968 18.2375 28.3037 18 27.6111 18C26.9184 18 26.2542 18.2375 25.7643 18.6603Z" fill="white"/>
</svg>
