<svg width="20" height="19" viewBox="0 0 20 19" fill="none" xmlns="http://www.w3.org/2000/svg">
<path d="M5.8 0H14.2C17.4 0 20 2.46118 20 5.49032V13.4418C20 14.8979 19.3889 16.2944 18.3012 17.3241C17.2135 18.3537 15.7383 18.9321 14.2 18.9321H5.8C2.6 18.9321 0 16.471 0 13.4418V5.49032C0 4.03419 0.61107 2.63771 1.69878 1.60808C2.78649 0.578443 4.26174 0 5.8 0ZM5.6 1.89321C4.64522 1.89321 3.72955 2.25225 3.05442 2.89133C2.37928 3.53041 2 4.3972 2 5.301V13.6311C2 15.5149 3.61 17.0389 5.6 17.0389H14.4C15.3548 17.0389 16.2705 16.6799 16.9456 16.0408C17.6207 15.4017 18 14.5349 18 13.6311V5.301C18 3.41725 16.39 1.89321 14.4 1.89321H5.6ZM15.25 3.31312C15.5815 3.31312 15.8995 3.43779 16.1339 3.65969C16.3683 3.8816 16.5 4.18256 16.5 4.49638C16.5 4.8102 16.3683 5.11117 16.1339 5.33307C15.8995 5.55497 15.5815 5.67964 15.25 5.67964C14.9185 5.67964 14.6005 5.55497 14.3661 5.33307C14.1317 5.11117 14 4.8102 14 4.49638C14 4.18256 14.1317 3.8816 14.3661 3.65969C14.6005 3.43779 14.9185 3.31312 15.25 3.31312ZM10 4.73303C11.3261 4.73303 12.5979 5.23169 13.5355 6.11931C14.4732 7.00692 15 8.21079 15 9.46607C15 10.7213 14.4732 11.9252 13.5355 12.8128C12.5979 13.7004 11.3261 14.1991 10 14.1991C8.67392 14.1991 7.40215 13.7004 6.46447 12.8128C5.52678 11.9252 5 10.7213 5 9.46607C5 8.21079 5.52678 7.00692 6.46447 6.11931C7.40215 5.23169 8.67392 4.73303 10 4.73303ZM10 6.62625C9.20435 6.62625 8.44129 6.92544 7.87868 7.45801C7.31607 7.99058 7 8.7129 7 9.46607C7 10.2192 7.31607 10.9416 7.87868 11.4741C8.44129 12.0067 9.20435 12.3059 10 12.3059C10.7956 12.3059 11.5587 12.0067 12.1213 11.4741C12.6839 10.9416 13 10.2192 13 9.46607C13 8.7129 12.6839 7.99058 12.1213 7.45801C11.5587 6.92544 10.7956 6.62625 10 6.62625Z" fill="#F8F8F8"/>
</svg>